<svg xmlns="http://www.w3.org/2000/svg" width="944px" height="894px">
                    <defs>
                        <linearGradient id="PSgrad_0" x1="88.295%" x2="0%" y1="0%" y2="46.947%">
                            <stop offset="0%" stop-color="rgb(67,186,255)" stop-opacity="1"></stop>
                            <stop offset="100%" stop-color="rgb(113,65,177)" stop-opacity="1"></stop>
                        </linearGradient>

                    </defs>
                    <path fill-rule="evenodd" fill="rgb(43, 142, 254)" d="M39.612,410.76 L467.344,29.823 C516.51,-13.476 590.638,-9.94 633.939,39.612 L914.192,317.344 C957.492,366.50 953.109,440.638 904.402,483.939 L476.671,864.191 C427.964,907.492 353.376,903.109 310.76,854.402 L29.823,576.670 C-13.477,527.963 -9.94,453.376 39.612,410.76 Z"></path>
                    <path fill="url(#PSgrad_0)" d="M39.612,410.76 L467.344,29.823 C516.51,-13.476 590.638,-9.94 633.939,39.612 L914.192,317.344 C957.492,366.50 953.109,440.638 904.402,483.939 L476.671,864.191 C427.964,907.492 353.376,903.109 310.76,854.402 L29.823,576.670 C-13.477,527.963 -9.94,453.376 39.612,410.76 Z"></path>
                </svg>