<svg xmlns="http://www.w3.org/2000/svg" width="515px" height="515px">
                    <defs>
                        <linearGradient id="PSgrad_0" x1="0%" x2="89.879%" y1="0%" y2="43.837%">
                            <stop offset="0%" stop-color="rgb(67,186,255)" stop-opacity="1"></stop>
                            <stop offset="100%" stop-color="rgb(113,65,177)" stop-opacity="1"></stop>
                        </linearGradient>

                    </defs>
                    <path fill-rule="evenodd" fill="rgb(43, 142, 254)" d="M19.529,202.281 L230.531,14.699 C254.559,-6.660 291.353,-4.498 312.714,19.529 L500.295,230.531 C521.656,254.559 519.493,291.353 495.466,312.714 L284.463,500.295 C260.436,521.656 223.641,519.493 202.281,495.466 L14.699,284.463 C-6.660,260.435 -4.498,223.641 19.529,202.281 Z"></path>
                    <path fill="url(#PSgrad_0)" d="M19.529,202.281 L230.531,14.699 C254.559,-6.660 291.353,-4.498 312.714,19.529 L500.295,230.531 C521.656,254.559 519.493,291.353 495.466,312.714 L284.463,500.295 C260.436,521.656 223.641,519.493 202.281,495.466 L14.699,284.463 C-6.660,260.435 -4.498,223.641 19.529,202.281 Z"></path>
                </svg>